<?xml version="1.0" standalone="no"?>
<!DOCTYPE svg PUBLIC "-//W3C//DTD SVG 20010904//EN"
 "http://www.w3.org/TR/2001/REC-SVG-20010904/DTD/svg10.dtd">
<svg version="1.0" xmlns="http://www.w3.org/2000/svg"
 width="512.000000pt" height="512.000000pt" viewBox="0 0 512.000000 512.000000"
 preserveAspectRatio="xMidYMid meet">
<metadata>
Created by potrace 1.14, written by Peter Selinger 2001-2017
</metadata>
<g transform="translate(0.000000,512.000000) scale(0.100000,-0.100000)"
fill="#000000" stroke="none">
<path d="M3303 4440 c-21 -9 -45 -26 -54 -36 -9 -10 -73 -113 -144 -229 -70
-115 -135 -221 -144 -235 -9 -14 -147 -239 -307 -500 -161 -261 -300 -485
-309 -498 -16 -23 -17 -21 -117 140 -56 90 -107 174 -115 188 -7 14 -78 129
-156 255 l-142 230 -671 337 c-368 185 -685 339 -703 341 -49 8 -87 -10 -105
-48 -15 -30 -16 -176 -14 -1507 3 -1381 4 -1475 20 -1504 42 -74 72 -91 691
-400 652 -327 661 -330 720 -291 62 41 60 18 60 735 0 358 2 652 3 652 2 0
625 -310 1386 -689 761 -379 1399 -693 1418 -698 73 -19 137 5 164 61 15 31
16 165 16 1518 0 1402 -1 1486 -17 1500 -10 9 -322 167 -694 353 -442 220
-688 337 -712 339 -20 2 -53 -5 -74 -14z"/>
</g>
</svg>
